<?xml version="1.0" encoding="UTF-8"?>
<svg xmlns="http://www.w3.org/2000/svg" width="1024" height="1024" viewBox="0 0 1024 1024" shape-rendering="geometricPrecision" color-rendering="optimizeQuality">
  <path fill="#ff7a00" fill-rule="evenodd" d="M 167.0,801.0 234.0,780.0 274.0,771.0 323.0,765.0 367.0,765.0 440.0,778.0 533.0,807.0 589.0,821.0 632.0,827.0 684.0,827.0 728.0,820.0 776.0,805.0 816.0,786.0 853.0,762.0 797.0,777.0 748.0,784.0 703.0,784.0 669.0,778.0 637.0,763.0 626.0,751.0 622.0,740.0 623.0,728.0 636.0,711.0 666.0,697.0 636.0,686.0 586.0,675.0 549.0,671.0 498.0,671.0 428.0,680.0 335.0,707.0 245.0,749.0 Z"/>
</svg>
