<?xml version="1.0" encoding="UTF-8"?>
<svg xmlns="http://www.w3.org/2000/svg" width="1024" height="1024" viewBox="0 0 1024 1024" shape-rendering="geometricPrecision" color-rendering="optimizeQuality">
<!--Layer 3: Ship (dark)-->
  <g id="ship" fill="#333333" fill-rule="evenodd">
    <path d="M 297.0,644.0 298.0,655.0 303.0,665.0 311.0,672.0 319.0,675.0 329.0,675.0 340.0,670.0 346.0,664.0 351.0,653.0 354.0,654.0 354.0,657.0 358.0,666.0 366.0,674.0 370.0,676.0 379.0,674.0 375.0,674.0 373.0,672.0 375.0,661.0 377.0,658.0 386.0,658.0 388.0,660.0 392.0,669.0 393.0,668.0 397.0,669.0 401.0,668.0 405.0,665.0 409.0,654.0 412.0,655.0 414.0,664.0 433.0,661.0 434.0,659.0 442.0,660.0 446.0,658.0 448.0,653.0 447.0,648.0 457.0,645.0 462.0,645.0 464.0,647.0 464.0,656.0 468.0,655.0 467.0,644.0 463.0,636.0 456.0,629.0 443.0,624.0 433.0,625.0 424.0,629.0 415.0,639.0 412.0,648.0 409.0,647.0 405.0,636.0 400.0,630.0 392.0,625.0 385.0,623.0 377.0,623.0 368.0,626.0 360.0,632.0 357.0,636.0 355.0,642.0 353.0,644.0 351.0,644.0 345.0,631.0 336.0,624.0 326.0,621.0 317.0,622.0 310.0,625.0 302.0,632.0 299.0,637.0 Z M 318.0,654.0 328.0,655.0 329.0,656.0 331.0,664.0 331.0,670.0 330.0,671.0 318.0,671.0 314.0,669.0 Z M 417.0,644.0 421.0,643.0 433.0,648.0 433.0,658.0 423.0,662.0 418.0,662.0 416.0,658.0 Z M 358.0,644.0 363.0,643.0 373.0,646.0 374.0,647.0 375.0,657.0 370.0,658.0 367.0,660.0 360.0,661.0 357.0,652.0 Z M 332.0,644.0 342.0,641.0 345.0,641.0 347.0,643.0 347.0,653.0 344.0,659.0 335.0,657.0 330.0,654.0 Z M 387.0,645.0 402.0,640.0 405.0,647.0 404.0,658.0 401.0,659.0 397.0,657.0 389.0,656.0 388.0,655.0 Z M 302.0,640.0 304.0,638.0 306.0,638.0 318.0,643.0 317.0,652.0 314.0,654.0 303.0,656.0 301.0,653.0 Z M 433.0,629.0 447.0,629.0 450.0,631.0 450.0,636.0 448.0,639.0 446.0,647.0 440.0,645.0 439.0,646.0 434.0,645.0 434.0,641.0 432.0,636.0 432.0,630.0 Z M 371.0,630.0 378.0,627.0 387.0,628.0 388.0,629.0 387.0,643.0 386.0,644.0 381.0,643.0 376.0,644.0 371.0,634.0 Z M 318.0,626.0 327.0,625.0 334.0,628.0 334.0,632.0 332.0,635.0 330.0,643.0 325.0,641.0 322.0,642.0 319.0,641.0 317.0,632.0 317.0,627.0 Z M 593.0,636.0 589.0,626.0 579.0,616.0 569.0,612.0 557.0,612.0 547.0,616.0 541.0,621.0 535.0,630.0 533.0,637.0 533.0,645.0 530.0,646.0 529.0,641.0 525.0,633.0 517.0,625.0 508.0,621.0 499.0,620.0 498.0,621.0 493.0,621.0 486.0,624.0 478.0,631.0 472.0,643.0 472.0,655.0 476.0,655.0 476.0,643.0 477.0,642.0 493.0,644.0 494.0,645.0 493.0,648.0 494.0,653.0 508.0,653.0 509.0,649.0 507.0,644.0 520.0,640.0 521.0,638.0 523.0,638.0 526.0,646.0 526.0,652.0 530.0,652.0 530.0,647.0 531.0,646.0 534.0,647.0 534.0,650.0 537.0,653.0 540.0,652.0 554.0,653.0 555.0,649.0 558.0,648.0 561.0,650.0 568.0,650.0 570.0,655.0 588.0,657.0 590.0,655.0 593.0,647.0 Z M 572.0,637.0 583.0,634.0 588.0,635.0 589.0,645.0 587.0,652.0 585.0,654.0 580.0,653.0 570.0,648.0 571.0,638.0 Z M 539.0,632.0 544.0,631.0 547.0,633.0 555.0,635.0 556.0,636.0 555.0,640.0 556.0,647.0 544.0,651.0 539.0,651.0 537.0,646.0 537.0,638.0 Z M 494.0,625.0 507.0,625.0 509.0,627.0 508.0,635.0 505.0,643.0 502.0,642.0 495.0,643.0 490.0,632.0 490.0,627.0 Z M 556.0,617.0 566.0,616.0 571.0,617.0 574.0,619.0 574.0,624.0 569.0,635.0 564.0,634.0 558.0,635.0 557.0,634.0 557.0,629.0 555.0,624.0 555.0,618.0 Z M 234.0,603.0 234.0,621.0 235.0,622.0 235.0,630.0 236.0,631.0 238.0,645.0 241.0,649.0 240.0,652.0 243.0,662.0 253.0,682.0 273.0,694.0 295.0,704.0 298.0,704.0 302.0,702.0 300.0,702.0 282.0,691.0 264.0,677.0 249.0,662.0 249.0,660.0 252.0,659.0 271.0,674.0 283.0,681.0 307.0,692.0 319.0,695.0 330.0,690.0 327.0,690.0 314.0,685.0 286.0,671.0 272.0,662.0 258.0,651.0 244.0,637.0 244.0,635.0 247.0,634.0 254.0,641.0 271.0,653.0 299.0,667.0 297.0,664.0 294.0,656.0 277.0,648.0 258.0,634.0 246.0,621.0 237.0,609.0 Z M 620.0,596.0 610.0,600.0 600.0,610.0 596.0,620.0 596.0,634.0 600.0,643.0 610.0,653.0 620.0,657.0 633.0,657.0 641.0,654.0 651.0,645.0 656.0,635.0 657.0,622.0 653.0,611.0 644.0,601.0 633.0,596.0 Z M 633.0,633.0 641.0,646.0 641.0,648.0 634.0,652.0 621.0,653.0 620.0,652.0 621.0,640.0 622.0,639.0 621.0,635.0 622.0,634.0 628.0,635.0 Z M 600.0,622.0 601.0,621.0 617.0,622.0 620.0,634.0 610.0,639.0 607.0,642.0 605.0,642.0 601.0,635.0 Z M 633.0,620.0 641.0,615.0 649.0,613.0 651.0,616.0 653.0,624.0 652.0,632.0 648.0,633.0 647.0,632.0 635.0,631.0 634.0,630.0 Z M 631.0,601.0 632.0,602.0 631.0,618.0 630.0,619.0 623.0,619.0 621.0,621.0 619.0,621.0 611.0,607.0 611.0,605.0 619.0,601.0 624.0,601.0 625.0,600.0 Z M 683.0,579.0 672.0,584.0 663.0,594.0 659.0,605.0 660.0,619.0 662.0,624.0 668.0,632.0 675.0,637.0 687.0,641.0 699.0,640.0 709.0,635.0 717.0,626.0 721.0,616.0 720.0,600.0 714.0,589.0 707.0,583.0 697.0,579.0 Z M 683.0,618.0 684.0,617.0 688.0,618.0 695.0,617.0 698.0,623.0 701.0,634.0 697.0,636.0 683.0,636.0 680.0,635.0 679.0,632.0 682.0,625.0 Z M 698.0,605.0 704.0,602.0 715.0,600.0 717.0,606.0 716.0,618.0 714.0,620.0 711.0,620.0 699.0,616.0 698.0,615.0 Z M 665.0,601.0 670.0,600.0 682.0,605.0 682.0,615.0 673.0,619.0 666.0,620.0 664.0,617.0 663.0,612.0 Z M 682.0,584.0 694.0,583.0 698.0,584.0 700.0,586.0 700.0,590.0 696.0,603.0 685.0,602.0 684.0,601.0 680.0,589.0 680.0,586.0 Z M 525.0,575.0 508.0,579.0 508.0,617.0 511.0,617.0 519.0,621.0 526.0,627.0 Z M 196.0,512.0 199.0,523.0 205.0,515.0 207.0,515.0 209.0,517.0 209.0,521.0 195.0,532.0 202.0,536.0 204.0,536.0 214.0,527.0 221.0,525.0 223.0,520.0 226.0,520.0 229.0,526.0 229.0,539.0 228.0,540.0 228.0,547.0 227.0,548.0 227.0,554.0 226.0,555.0 226.0,561.0 223.0,576.0 222.0,596.0 221.0,597.0 221.0,621.0 222.0,622.0 222.0,631.0 223.0,632.0 224.0,644.0 230.0,665.0 239.0,684.0 252.0,702.0 268.0,718.0 273.0,715.0 262.0,704.0 249.0,686.0 240.0,668.0 236.0,657.0 230.0,628.0 230.0,594.0 231.0,593.0 234.0,594.0 237.0,601.0 251.0,620.0 261.0,630.0 277.0,642.0 293.0,650.0 293.0,640.0 295.0,636.0 275.0,627.0 267.0,621.0 259.0,613.0 254.0,606.0 246.0,588.0 242.0,568.0 242.0,536.0 243.0,535.0 242.0,512.0 239.0,502.0 229.0,502.0 225.0,495.0 Z M 794.0,493.0 794.0,523.0 793.0,524.0 792.0,539.0 787.0,559.0 778.0,578.0 771.0,588.0 754.0,605.0 736.0,617.0 725.0,622.0 719.0,632.0 755.0,615.0 777.0,602.0 793.0,590.0 795.0,590.0 796.0,593.0 785.0,603.0 765.0,618.0 728.0,641.0 687.0,660.0 650.0,672.0 662.0,676.0 666.0,676.0 718.0,662.0 759.0,646.0 786.0,632.0 802.0,621.0 805.0,622.0 805.0,624.0 782.0,642.0 757.0,658.0 724.0,675.0 690.0,688.0 708.0,697.0 731.0,691.0 758.0,682.0 782.0,672.0 795.0,665.0 797.0,665.0 798.0,668.0 792.0,673.0 765.0,690.0 739.0,703.0 710.0,715.0 686.0,723.0 672.0,726.0 722.0,720.0 772.0,710.0 784.0,698.0 799.0,676.0 809.0,655.0 816.0,630.0 818.0,610.0 819.0,609.0 819.0,581.0 818.0,580.0 818.0,569.0 817.0,568.0 816.0,557.0 811.0,536.0 805.0,518.0 Z M 796.0,588.0 799.0,587.0 800.0,590.0 797.0,591.0 Z M 745.0,316.0 745.0,331.0 744.0,332.0 729.0,331.0 729.0,345.0 728.0,346.0 729.0,364.0 735.0,391.0 755.0,447.0 761.0,470.0 763.0,486.0 764.0,487.0 764.0,495.0 765.0,496.0 765.0,522.0 764.0,523.0 764.0,531.0 762.0,540.0 757.0,554.0 747.0,570.0 735.0,582.0 721.0,591.0 726.0,604.0 726.0,616.0 737.0,610.0 755.0,597.0 768.0,583.0 780.0,562.0 784.0,550.0 788.0,530.0 788.0,521.0 789.0,520.0 788.0,481.0 789.0,480.0 791.0,480.0 793.0,482.0 803.0,502.0 817.0,540.0 822.0,563.0 823.0,577.0 824.0,578.0 824.0,615.0 823.0,616.0 823.0,624.0 819.0,644.0 814.0,659.0 798.0,690.0 781.0,711.0 765.0,726.0 743.0,742.0 736.0,745.0 768.0,742.0 786.0,728.0 808.0,705.0 822.0,685.0 834.0,660.0 841.0,636.0 841.0,631.0 843.0,624.0 843.0,614.0 844.0,613.0 844.0,587.0 843.0,586.0 842.0,569.0 835.0,537.0 828.0,516.0 820.0,496.0 808.0,471.0 763.0,390.0 759.0,380.0 757.0,371.0 758.0,360.0 761.0,359.0 770.0,371.0 782.0,373.0 809.0,389.0 811.0,389.0 826.0,377.0 788.0,358.0 787.0,348.0 791.0,347.0 796.0,350.0 800.0,355.0 810.0,361.0 803.0,336.0 Z M 325.0,245.0 343.0,260.0 366.0,284.0 381.0,303.0 396.0,326.0 411.0,355.0 419.0,375.0 428.0,408.0 430.0,426.0 431.0,427.0 431.0,437.0 432.0,438.0 432.0,475.0 431.0,476.0 431.0,484.0 430.0,485.0 430.0,492.0 427.0,507.0 419.0,533.0 402.0,568.0 382.0,596.0 370.0,609.0 412.0,595.0 492.0,573.0 537.0,564.0 552.0,563.0 553.0,562.0 565.0,562.0 566.0,561.0 593.0,562.0 613.0,567.0 624.0,573.0 632.0,581.0 636.0,592.0 644.0,584.0 658.0,566.0 667.0,551.0 675.0,533.0 680.0,517.0 683.0,502.0 684.0,464.0 683.0,463.0 683.0,455.0 679.0,436.0 667.0,404.0 649.0,374.0 633.0,354.0 623.0,345.0 476.0,296.0 473.0,294.0 426.0,279.0 423.0,277.0 420.0,277.0 408.0,272.0 393.0,268.0 387.0,265.0 Z M 520.0,302.0 515.0,214.0 514.0,249.0 513.0,250.0 493.0,244.0 472.0,244.0 447.0,250.0 425.0,252.0 404.0,248.0 394.0,243.0 411.0,256.0 427.0,262.0 440.0,263.0 441.0,264.0 473.0,264.0 495.0,269.0 507.0,275.0 512.0,279.0 512.0,295.0 511.0,298.0 Z"/>
  </g>
</svg>
